<?xml version="1.0" encoding="utf-8"?>
<!-- Generator: Adobe Illustrator 16.0.0, SVG Export Plug-In . SVG Version: 6.00 Build 0)  -->
<!DOCTYPE svg PUBLIC "-//W3C//DTD SVG 1.0//EN" "http://www.w3.org/TR/2001/REC-SVG-20010904/DTD/svg10.dtd">
<svg version="1.0" id="Layer_1" xmlns="http://www.w3.org/2000/svg" xmlns:xlink="http://www.w3.org/1999/xlink" x="0px" y="0px"
	 width="569.667px" height="153.333px" viewBox="0 0 569.667 153.333" enable-background="new 0 0 569.667 153.333"
	 xml:space="preserve">
<path fill="none" stroke="#FFFFFF" stroke-width="10" stroke-miterlimit="10" d="M148.871,76.182
	c0,21.492-17.422,38.915-38.917,38.915H59.215c-21.492,0-38.917-17.423-38.917-38.915c0-21.495,17.425-38.917,38.917-38.917h50.739
	C131.449,37.265,148.871,54.688,148.871,76.182z"/>
<g>
	<path fill="#FFFFFF" d="M229.762,51.315c-0.108,9.774-6.102,19.548-19.386,19.548s-19.44-9.558-19.44-19.494
		c0-11.934,8.64-19.926,19.602-19.926C223.444,31.551,229.87,41.487,229.762,51.315z M210.376,64.33
		c8.91,0,12.258-6.696,12.366-12.906c0.108-6.318-3.51-13.338-12.205-13.5c-8.046,0-12.798,6.048-12.582,13.554
		C198.118,57.688,201.466,64.33,210.376,64.33z"/>
	<path fill="#FFFFFF" d="M252.873,70V55.743c0-3.51-1.836-6.696-5.454-6.696c-3.563,0-5.669,3.186-5.669,6.696V70h-6.588V43.323
		h6.102l0.486,3.24c1.404-2.7,4.482-3.672,7.02-3.672c3.186,0,6.372,1.296,7.884,4.968c2.376-3.78,5.454-4.86,8.91-4.86
		c7.561,0,11.286,4.644,11.286,12.636V70h-6.588V55.635c0-3.51-1.458-6.48-5.022-6.48c-3.563,0-5.777,3.078-5.777,6.588V70H252.873z
		"/>
	<path fill="#FFFFFF" d="M304.606,43.377h6.318V70h-6.211l-0.324-3.888c-1.512,3.132-5.67,4.644-8.641,4.698
		c-7.883,0.054-13.715-4.806-13.715-14.148c0-9.18,6.103-13.986,13.877-13.932c3.564,0,6.967,1.674,8.479,4.32L304.606,43.377z
		 M288.621,56.661c0,5.076,3.51,8.1,7.885,8.1c10.367,0,10.367-16.146,0-16.146C292.131,48.615,288.621,51.585,288.621,56.661z"/>
	<path fill="#FFFFFF" d="M324.153,43.377l0.486,3.078c2.051-3.294,4.805-3.78,7.506-3.78c2.754,0,5.4,1.08,6.857,2.538l-2.971,5.724
		c-1.35-1.134-2.592-1.728-4.752-1.728c-3.455,0-6.641,1.836-6.641,6.75V70h-6.588V43.377H324.153z"/>
	<path fill="#FFFFFF" d="M379.934,62.872h-19.766L356.928,70h-7.721l16.955-37.801h7.777L390.895,70h-7.775L379.934,62.872z
		 M370.051,40.137l-7.02,16.092h14.039L370.051,40.137z"/>
	<path fill="#FFFFFF" d="M415.682,43.323l5.832,20.034l6.102-20.034h7.289l-9.287,26.784h-7.668l-2.754-7.884l-2.377-8.91
		l-2.375,8.91l-2.754,7.884h-7.668l-9.344-26.784h7.346l6.102,20.034l5.777-20.034H415.682z"/>
	<path fill="#FFFFFF" d="M459.692,43.377h6.318V70h-6.211l-0.324-3.888c-1.512,3.132-5.67,4.644-8.641,4.698
		c-7.883,0.054-13.715-4.806-13.715-14.148c0-9.18,6.102-13.986,13.877-13.932c3.564,0,6.967,1.674,8.479,4.32L459.692,43.377z
		 M443.708,56.661c0,5.076,3.51,8.1,7.885,8.1c10.367,0,10.367-16.146,0-16.146C447.217,48.615,443.708,51.585,443.708,56.661z"/>
	<path fill="#FFFFFF" d="M475.836,70V49.533h-4.967v-5.778h4.967v-1.782c0-7.128,4.807-10.422,10.152-10.422
		c2.322,0,4.752,0.756,6.912,2.16l-2.43,4.914c-1.404-0.918-2.699-1.404-4.049-1.404c-2.27,0-3.996,1.512-3.996,4.752v1.782h7.83
		v5.778h-7.83V70H475.836z"/>
	<path fill="#FFFFFF" d="M515.258,43.377h6.318V70h-6.211l-0.324-3.888c-1.512,3.132-5.67,4.644-8.641,4.698
		c-7.883,0.054-13.715-4.806-13.715-14.148c0-9.18,6.102-13.986,13.877-13.932c3.564,0,6.967,1.674,8.479,4.32L515.258,43.377z
		 M499.274,56.661c0,5.076,3.51,8.1,7.885,8.1c10.367,0,10.367-16.146,0-16.146C502.784,48.615,499.274,51.585,499.274,56.661z"/>
</g>
<g>
	<path fill="#FFFFFF" d="M192.015,96.101h9.179c8.567,0,12.67,6.119,12.67,12.346c0,6.443-3.852,12.887-12.67,12.887h-9.179V96.136
		V96.101z M210.733,108.412c0-4.68-3.096-9.287-9.539-9.287h-6.047v19.077h6.047C207.889,118.202,210.733,113.234,210.733,108.412z"
		/>
	<path fill="#FFFFFF" d="M232.802,121.406l-0.072-3.24c-1.404,2.448-4.104,3.6-6.551,3.6c-5.111,0-9.106-3.527-9.106-9.322
		c0-5.76,4.067-9.215,9.143-9.18c2.664,0,5.292,1.225,6.587,3.528l0.036-3.239h2.88v17.781h-2.844L232.802,121.406z
		 M226.322,106.072c-3.527,0-6.371,2.52-6.371,6.479c0,3.96,2.844,6.516,6.371,6.516c8.567,0,8.567-13.03,0.036-13.03
		L226.322,106.072z"/>
	<path fill="#FFFFFF" d="M246.123,103.587h5.507v2.52h-5.543v9.396c0,2.087,0.684,3.419,2.808,3.419
		c0.791,0,1.691-0.252,2.483-0.647l0.864,2.448c-1.188,0.539-2.269,0.827-3.456,0.863c-3.815,0.072-5.615-2.16-5.615-6.083v-9.396
		h-3.563v-2.52h3.563v-4.895l2.952-0.324V103.587z"/>
	<path fill="#FFFFFF" d="M270.024,121.406l-0.071-3.24c-1.404,2.448-4.104,3.6-6.552,3.6c-5.111,0-9.106-3.527-9.106-9.322
		c0-5.76,4.067-9.215,9.143-9.18c2.664,0,5.291,1.225,6.587,3.528l0.036-3.239h2.88v17.781h-2.844L270.024,121.406z
		 M263.546,106.072c-3.528,0-6.371,2.52-6.371,6.479c0,3.96,2.843,6.516,6.371,6.516c8.566,0,8.566-13.03,0.036-13.03
		L263.546,106.072z"/>
	<path fill="#FFFFFF" d="M302.28,102.436c0-3.204-2.734-3.924-5.723-3.924c-4.32,0-6.119,2.159-6.084,4.392
		c0.037,3.275,3.709,4.248,6.156,4.248h11.193v2.555h-2.23v4.68c0,2.16,0.611,4.176,2.734,4.14v2.844
		c-1.979,0.144-3.814-0.685-4.463-3.132c-1.764,2.844-4.643,3.42-7.307,3.42c-5.832,0-9.611-2.268-9.611-7.451
		c0-2.664,2.088-4.932,4.535-5.76c-2.447-0.756-4.067-3.059-4.067-5.471c0-4.572,4.032-7.092,9.215-7.092
		c4.211,0,8.602,1.332,8.602,6.623h-2.951V102.436z M296.413,109.671c-4.283,0-6.371,2.375-6.371,4.463
		c0,2.988,2.484,4.715,6.443,4.715c2.34,0,6.264-1.079,6.264-4.535v-4.643H296.413z"/>
	<path fill="#FFFFFF" d="M333.565,96.136l11.303,25.197h-3.383L339,115.791h-14.398l-2.447,5.543h-3.42l11.303-25.197H333.565z
		 M331.801,99.304l-5.975,13.606h11.949L331.801,99.304z"/>
	<path fill="#FFFFFF" d="M348.831,96.136h3.131v25.197h-3.131V96.136z"/>
	<path fill="#FFFFFF" d="M376.584,98.404c-3.203,0-6.623,1.26-6.623,4.32c0,2.735,3.133,3.527,6.84,4.139
		c5.039,0.793,10.006,1.801,10.006,7.488c-0.035,5.65-5.436,7.486-10.258,7.486c-4.465,0-8.711-1.619-10.654-5.831l2.592-1.513
		c1.619,2.988,5.002,4.428,8.098,4.428c3.061,0,7.127-0.972,7.127-4.68c0.037-3.131-3.49-4.031-7.271-4.607
		c-4.859-0.756-9.574-1.871-9.574-6.982c-0.072-5.256,5.291-7.055,9.646-7.055c3.744,0,7.309,0.756,9.539,4.57l-2.375,1.477
		C382.309,99.449,379.393,98.441,376.584,98.404z"/>
	<path fill="#FFFFFF" d="M390.877,103.624h2.807l0.145,3.42c1.404-2.376,4.031-3.743,6.84-3.743
		c5.111,0.107,8.855,3.707,8.855,9.178c0,5.615-3.709,9.252-9.035,9.252c-2.52,0-5.328-1.08-6.732-3.6v11.59h-2.879V103.624z
		 M406.571,112.55c0-3.995-2.627-6.371-6.262-6.371c-3.709,0-6.229,2.736-6.229,6.371c0,3.636,2.629,6.371,6.229,6.408
		C403.872,118.958,406.571,116.546,406.571,112.55z"/>
	<path fill="#FFFFFF" d="M429.719,118.49c-1.801,2.124-4.896,3.168-7.668,3.168c-5.506,0-9.357-3.636-9.357-9.287
		c0-5.363,3.852-9.215,9.215-9.215c5.436,0,9.574,3.348,8.891,10.438H415.68c0.324,3.276,3.023,5.327,6.443,5.327
		c2.016,0,4.465-0.791,5.652-2.231l1.979,1.8H429.719z M427.991,111.147c-0.143-3.456-2.52-5.327-6.01-5.327
		c-3.096,0-5.797,1.871-6.301,5.291h12.311V111.147z"/>
	<path fill="#FFFFFF" d="M449.7,118.921c-1.908,1.908-4.176,2.736-6.623,2.736c-5.076,0-9.287-3.275-9.287-9.215
		s4.141-9.215,9.287-9.215c2.412,0,4.572,0.828,6.443,2.664l-1.871,1.943c-1.26-1.225-2.916-1.8-4.5-1.8
		c-3.527,0-6.371,2.411-6.371,6.407c0,4.139,2.879,6.406,6.334,6.406c1.693,0,3.385-0.575,4.645-1.871l1.98,1.98L449.7,118.921z"/>
	<path fill="#FFFFFF" d="M456.936,98.152c0,2.557-3.887,2.557-3.887-0.035C453.049,95.56,456.936,95.56,456.936,98.152z
		 M453.481,121.333h2.951V103.48h-2.951V121.333z"/>
	<path fill="#FFFFFF" d="M476.446,121.406l-0.07-3.24c-1.404,2.448-4.104,3.6-6.553,3.6c-5.111,0-9.105-3.527-9.105-9.322
		c0-5.76,4.066-9.215,9.143-9.18c2.664,0,5.291,1.225,6.586,3.528l0.037-3.239h2.879v17.781h-2.844L476.446,121.406z
		 M469.967,106.072c-3.527,0-6.371,2.52-6.371,6.479c0,3.96,2.844,6.516,6.371,6.516c8.566,0,8.566-13.03,0.037-13.03
		L469.967,106.072z"/>
	<path fill="#FFFFFF" d="M487.932,121.333h-2.951V96.136h2.951V121.333z"/>
	<path fill="#FFFFFF" d="M497.004,98.152c0,2.557-3.889,2.557-3.889-0.035C493.116,95.56,497.004,95.56,497.004,98.152z
		 M493.547,121.333h2.953V103.48h-2.953V121.333z"/>
	<path fill="#FFFFFF" d="M513.311,107.511c-1.549-1.404-3.168-1.729-5.004-1.729c-2.447-0.035-4.428,0.828-4.391,2.592
		c0.035,1.836,2.195,2.377,4.426,2.629c3.24,0.396,7.561,1.043,7.488,5.435c-0.072,3.563-3.455,5.327-7.451,5.327
		c-2.988,0-5.939-0.828-7.955-3.348l1.691-2.051c1.584,1.943,4.139,2.734,6.336,2.734c1.943,0,4.428-0.611,4.498-2.771
		c0.037-1.943-2.051-2.52-4.787-2.844c-3.42-0.432-7.09-1.331-7.09-5.111c-0.037-3.779,3.779-5.255,7.199-5.219
		c2.662,0,4.859,0.648,6.766,2.375l-1.691,1.944L513.311,107.511z"/>
	<path fill="#FFFFFF" d="M524.868,103.587h5.506v2.52h-5.543v9.396c0,2.087,0.684,3.419,2.809,3.419
		c0.791,0,1.691-0.252,2.482-0.647l0.865,2.448c-1.188,0.539-2.268,0.827-3.455,0.863c-3.816,0.072-5.617-2.16-5.617-6.083v-9.396
		h-3.563v-2.52h3.563v-4.895l2.953-0.324V103.587z"/>
</g>
<polyline fill="none" stroke="#FFFFFF" stroke-width="10" stroke-linecap="round" stroke-linejoin="round" stroke-miterlimit="10" points="
	20.299,124.667 84.585,25.333 148.871,128 "/>
</svg>
